<svg width="192" height="192" viewBox="0 0 192 192" fill="none" xmlns="http://www.w3.org/2000/svg">
<rect width="192" height="192" rx="32" fill="white"/>
<path d="M73.3083 135.736C66.1403 135.736 60.3803 133.272 56.0283 128.344C54.6203 126.744 54.7803 125.368 56.5083 124.216C57.8523 123.256 59.2603 123.512 60.7323 124.984C63.8043 128.44 67.9963 130.168 73.3083 130.168C78.0443 130.168 81.6603 128.6 84.1563 125.464C86.6523 122.392 87.9003 117.752 87.9003 111.544V103.288C86.3003 105.784 84.2203 107.768 81.6603 109.24C79.1003 110.648 76.1883 111.352 72.9243 111.352C69.0203 111.352 65.5323 110.456 62.4603 108.664C59.4523 106.872 57.0523 104.344 55.2603 101.08C53.5323 97.816 52.6683 93.976 52.6683 89.56C52.6683 85.144 53.5323 81.336 55.2603 78.136C57.0523 74.872 59.4523 72.344 62.4603 70.552C65.5323 68.76 69.0203 67.864 72.9243 67.864C76.2523 67.864 79.2603 68.632 81.9483 70.168C84.6363 71.704 86.7803 73.912 88.3803 76.792V71.704C88.3803 69.912 89.2443 69.016 90.9723 69.016C92.7643 69.016 93.6603 70.072 93.6603 72.184V111.544C93.6603 119.864 91.7723 125.976 87.9963 129.88C84.2843 133.784 79.3883 135.736 73.3083 135.736ZM73.2123 105.976C76.0923 105.976 78.6523 105.304 80.8923 103.96C83.1323 102.552 84.8923 100.632 86.1723 98.2C87.4523 95.704 88.0923 92.824 88.0923 89.56C88.0923 86.296 87.4523 83.448 86.1723 81.016C84.8923 78.584 83.1323 76.696 80.8923 75.352C78.6523 73.944 76.0923 73.24 73.2123 73.24C70.3963 73.24 67.8683 73.944 65.6283 75.352C63.4523 76.696 61.7243 78.584 60.4443 81.016C59.1643 83.448 58.5243 86.296 58.5243 89.56C58.5243 92.824 59.1643 95.704 60.4443 98.2C61.7243 100.632 63.4523 102.552 65.6283 103.96C67.8683 105.304 70.3963 105.976 73.2123 105.976Z" fill="black"/>
<path d="M116.225 93.648L109.169 88.608L116.813 79.452L105.305 76.512L107.909 68.28L118.997 72.648L118.157 60.888H126.893L126.053 72.648L137.057 68.28L139.745 76.512L128.153 79.452L135.881 88.608L128.741 93.648L122.525 83.568L116.225 93.648Z" fill="#3EC995"/>
<path d="M130.639 133.2C128.815 133.2 127.055 132.704 125.359 131.712C123.695 130.72 122.255 129.328 121.039 127.536C118.319 131.28 115.039 133.152 111.199 133.152C109.439 133.152 107.871 132.752 106.495 131.952C105.119 131.12 104.031 130 103.231 128.592C102.431 127.184 102.031 125.584 102.031 123.792C102.031 122 102.431 120.4 103.231 118.992C104.031 117.584 105.119 116.48 106.495 115.68C107.903 114.848 109.471 114.432 111.199 114.432C115.039 114.432 118.319 116.352 121.039 120.192C123.535 116.352 126.735 114.432 130.639 114.432C132.335 114.432 133.887 114.864 135.295 115.728C136.703 116.56 137.823 117.68 138.655 119.088C139.519 120.496 139.951 122.064 139.951 123.792C139.951 125.488 139.519 127.056 138.655 128.496C137.823 129.936 136.703 131.088 135.295 131.952C133.887 132.784 132.335 133.2 130.639 133.2ZM111.535 129.504C112.847 129.504 114.159 129.008 115.471 128.016C116.783 127.024 117.967 125.632 119.023 123.84C118.095 122.016 116.975 120.608 115.663 119.616C114.383 118.624 113.007 118.128 111.535 118.128C109.743 118.128 108.335 118.624 107.311 119.616C106.287 120.608 105.775 122 105.775 123.792C105.775 125.584 106.271 126.992 107.263 128.016C108.287 129.008 109.711 129.504 111.535 129.504ZM130.687 129.552C132.383 129.552 133.727 129.04 134.719 128.016C135.711 126.96 136.207 125.552 136.207 123.792C136.207 122.096 135.679 120.72 134.623 119.664C133.599 118.608 132.287 118.08 130.687 118.08C127.807 118.08 125.247 120 123.007 123.84C123.935 125.376 125.023 126.72 126.271 127.872C127.551 128.992 129.023 129.552 130.687 129.552Z" fill="black"/>
</svg>
